<svg xmlns="http://www.w3.org/2000/svg" width="91" height="26" viewBox="0 0 91 26">
  <g id="Group_24" data-name="Group 24" transform="translate(-538 -1392)">
    <rect id="Rectangle_67" data-name="Rectangle 67" width="91" height="26" transform="translate(538 1392)" fill="#a2bb2e"/>
    <path id="Path_11" data-name="Path 11" d="M-15.163-17.695q0,.361-.049.943a9.016,9.016,0,0,1-.2,1.234,10.728,10.728,0,0,1-.4,1.324,4.376,4.376,0,0,1-.677,1.214,3.407,3.407,0,0,1-1.056.883,2.916,2.916,0,0,1-1.485.321h-.858l.132-10.253h.825a4.023,4.023,0,0,1,2.112.431,2.941,2.941,0,0,1,1.122,1.124,3.856,3.856,0,0,1,.445,1.425A12.544,12.544,0,0,1-15.163-17.695Zm-.561-.14a10.3,10.3,0,0,0-.082-1.224,3.439,3.439,0,0,0-.413-1.274,2.711,2.711,0,0,0-.957-.983,3.227,3.227,0,0,0-1.716-.391q-.033,2.388-.033,4.785t-.066,4.846a2.25,2.25,0,0,0,1.221-.331,3,3,0,0,0,.891-.863,5.182,5.182,0,0,0,.594-1.174,7.945,7.945,0,0,0,.346-1.284q.116-.642.165-1.2T-15.724-17.835Zm2.277,6.059V-22.029h4.587v.361h-3.7q.033,1.746.033,3.321t-.033,3.341h3.729v.341h-3.729q0,.562-.016,1.264t.016,1.284h3.7v.341Zm6.006-10.253q1.386,0,3.052.01t3.482.01v.3H-3.745v1.515q0,.893-.016,1.886t-.016,2.016q0,1.023-.017,1.916t-.016,1.585v1.013H-4.7l.066-9.932H-5.973q-.677,0-1.469-.02Zm10.1.5.1-.461q0-.02.181-.04a3.618,3.618,0,0,1,.4-.02,1.225,1.225,0,0,1,.412.07.415.415,0,0,1,.264.231,42.221,42.221,0,0,1,1.039,4.284q.478,2.458,1.237,5.688H5.693l-.66-2.909h-2.8q-.132.7-.264,1.425t-.3,1.485H.776Zm.825.241-1.188,6.26q.693,0,1.254.01t1.419.01Zm4.752-.722v1.475q0,.893-.016,1.916t-.017,2.1q0,1.073-.016,2.016t-.017,1.675v1.073H7.475l.066-10.253Zm2.211-.02v1.384q0,.823-.016,1.776T10.411-16.9q0,1.013-.016,1.926t-.017,1.665v1.194h3.333v.341H9.488l.066-10.253ZM15.493-12.5a1.528,1.528,0,0,0,.908.451,3.412,3.412,0,0,0,.709-.01.69.69,0,0,0,.66-.692,3.171,3.171,0,0,0-.33-1.415L15.229-19.42a5.154,5.154,0,0,1-.3-.9,1.647,1.647,0,0,1,0-.8,1.2,1.2,0,0,1,.4-.612,1.727,1.727,0,0,1,.891-.331,2.98,2.98,0,0,1,1.254.06,1.8,1.8,0,0,1,.891.542l-.33.1a1.528,1.528,0,0,0-.907-.451,3.412,3.412,0,0,0-.71.01.675.675,0,0,0-.66.722,3.665,3.665,0,0,0,.363,1.445q.561,1.224,1.073,2.618t1.039,2.578a5.071,5.071,0,0,1,.3.913,2.065,2.065,0,0,1,.033.813.983.983,0,0,1-.363.6,1.789,1.789,0,0,1-.891.321,2.98,2.98,0,0,1-1.254-.06,1.8,1.8,0,0,1-.891-.542Z" transform="translate(584 1422.107)" fill="#fff"/>
  </g>
</svg>
