<svg xmlns="http://www.w3.org/2000/svg" viewBox="0 0 200.5 200.37"><g id="Layer_2" data-name="Layer 2"><g id="Layer_1-2" data-name="Layer 1"><path d="M0,100.34C-.53,44.82,46.73-1.65,103.22,0c52,1.57,97.67,45.07,97.28,101.91-.38,53.28-45.85,98.49-99.68,98.42C44.67,200.3-.07,155.91,0,100.34Zm31.36,65.43c8.43-8.49,16.73-16.6,24.67-25.05a11.81,11.81,0,0,0,3-7.25c.25-15.93.31-31.87,0-47.8-.12-6,1.29-10.92,5.63-15.25A124.69,124.69,0,0,0,75.31,58a11.55,11.55,0,0,0,2.49-6.17c.15-4.27,1.91-6.3,6.11-6.91,8.51-1.26,17-2.74,25.48-4.21,6.83-1.18,7.21-1,8.65,5.62A6.11,6.11,0,0,0,119.15,49c4.52,5,9.14,9.91,13.42,14.51L165,31.17C134.5.12,75.89-7.25,34.37,31.4-3,66.22-4.94,129,31.36,165.77ZM169.42,35.5l-31.8,31.86c1.16,3.32,3.28,6.63,3.33,10,.31,20.9.14,41.82.18,62.73,0,3.8-1.6,6.17-5.18,7.55-10,3.86-20,8-30.06,11.74a15.06,15.06,0,0,1-8.18.4Q82,156,66.52,151.52c-3-.88-5.69-3-8-4.34l-22.8,22.66c32.72,32.53,92.59,37,131.84-2.42S202.3,68.64,169.42,35.5ZM64,80.77c0,19.21,0,37.75,0,56.28,0,8.93,0,8.95,8.7,11.21s17.16,4.4,26,6.66V87.06Zm40.21,74c9.89-3.92,18.74-7.63,27.75-10.88,3.28-1.18,4.13-2.87,4.11-6.15C136,119.12,136,100.54,136,82c0-1.38-.26-2.76-.44-4.63-10,3.06-19.54,5.84-28.92,9-1.13.38-2.29,2.64-2.32,4.06-.2,9.28-.1,18.57-.09,27.86Zm29.83-82.22c-6.37-6.81-12.09-13-17.92-19.09a4,4,0,0,0-2.93-1.35c-9.31,1.78-18.59,3.75-28.49,5.79C90.58,65.75,95.8,73,101.28,80a4.7,4.7,0,0,0,4.08,1.18C114.72,78.54,124,75.6,134.08,72.51ZM80.16,60.1l-13.7,16L95.91,81.4Zm32.66-13.21-.31-1.69c-9.61,1.61-19.23,3.2-28.83,4.93-.37.07-.49,1.5-.93,3Z"/></g></g></svg>