<svg xmlns="http://www.w3.org/2000/svg" viewBox="0 0 82.44 120.03"><g id="Layer_2" data-name="Layer 2"><g id="Layer_1-2" data-name="Layer 1"><path d="M82,37.22a15.38,15.38,0,0,0-2.77-6.44c-3.3-5.15-4.39-6.55-8-9.93-4-3.72-7.28-7.93-10.92-12a6.06,6.06,0,0,1-1.11-2.72C57.72-.41,57.34-.63,50.52.55,42,2,33.55,3.51,25,4.76c-4.2.62-6,2.65-6.11,6.92a11.58,11.58,0,0,1-2.49,6.17A125.73,125.73,0,0,1,5.75,30.31C1.41,34.63,0,39.52.12,45.55c.3,15.93.24,31.87,0,47.8-.07,4.48-.5,10.32,1,14.48a1.72,1.72,0,0,0,1.07.92c12.35,3,24.23,8,36.65,10.9a15.05,15.05,0,0,0,8.18-.4c10.1-3.69,20-7.88,30.06-11.75,3.58-1.38,5.19-3.74,5.19-7.54,0-14,0-27.93,0-41.9C82.23,51.65,82.83,44.09,82,37.22ZM24.81,10c9.31-1.68,18.64-3.23,28-4.79a.88.88,0,0,1,1,.71h0a.86.86,0,0,1-.68,1l-26.69,5.5a1.61,1.61,0,0,1-1.85-2.15C24.64,10.14,24.72,10,24.81,10ZM22.5,21.63,34.6,38A1.62,1.62,0,0,1,33,40.56l-22.63-4.1a1.62,1.62,0,0,1-.94-2.65L20,21.53A1.64,1.64,0,0,1,22.5,21.63Zm17.35,91.09a1.62,1.62,0,0,1-2,1.57c-8.12-2.08-16-4.09-24-6.15-8.67-2.25-8.69-2.27-8.7-11.2,0-17.91,0-35.82,0-54.34A1.63,1.63,0,0,1,7.08,41l31.43,5.7a1.62,1.62,0,0,1,1.34,1.6ZM27.37,19.79a1.63,1.63,0,0,1,1-2.56c9-1.86,17.48-3.64,26-5.27a4,4,0,0,1,2.94,1.35c5.28,5.52,10.47,11.12,16.14,17.19a1.63,1.63,0,0,1-.72,2.66C63.6,36,55.07,38.65,46.49,41.1a4.72,4.72,0,0,1-4.09-1.18C37.4,33.49,32.61,26.89,27.37,19.79Zm45.76,83.95c-8.34,3-16.53,6.4-25.53,10a1.63,1.63,0,0,1-2.23-1.52V78.11c0-9.29-.11-18.58.1-27.87,0-1.41,1.18-3.67,2.31-4.05,8.8-2.94,17.7-5.57,27.05-8.41a1.63,1.63,0,0,1,2.09,1.36,22.26,22.26,0,0,1,.22,2.71c0,18.58-.06,37.16.09,55.73C77.25,100.87,76.41,102.56,73.13,103.74Z"/></g></g></svg>