<?xml version="1.0" ?><svg data-name="Layer 3" id="Layer_3" viewBox="0 0 100 100" xmlns="http://www.w3.org/2000/svg"><title/><path d="M69.8252,30.17472c-.01117-.01117-.02643-.01447-.03791-.02521A28.02809,28.02809,0,0,0,30.1496,69.7872c.01074.01148.014.02674.0252.03791s.02643.01446.03791.02521A28.02809,28.02809,0,0,0,69.8504,30.21262C69.83966,30.20115,69.83636,30.18589,69.8252,30.17472ZM24.958,49.99991A25.02405,25.02405,0,0,1,66.60339,31.27543l-8.96325,8.96325a33.789,33.789,0,0,1-6.76807-3.76318c-5.60937-4.00586-10.51172-4.97559-14.57227-2.8877-5.51757,2.83985-7.57421,10.59961-7.57421,14.82325v6.84472c0,3.24372,2.11328,6.145,5.58667,8.31079l-3.03675,3.03675A24.935,24.935,0,0,1,24.958,49.99991Zm6.76758-1.58886c0-3.668,1.88964-10.06739,5.94726-12.15625a6.65259,6.65259,0,0,1,3.08594-.72657c2.4082,0,5.21,1.13184,8.36914,3.38867a36.97365,36.97365,0,0,0,6.22748,3.60651l-5.2461,5.24609c-1.24469-.313-2.52978-.71539-4.06536-1.25592a40.60589,40.60589,0,0,1-2.10938-5.06543,1.49986,1.49986,0,1,0-2.82812,1,43.75966,43.75966,0,0,0,1.7611,4.37915,35.11369,35.11369,0,0,1-5.03161,1.14136,1.50006,1.50006,0,0,0,.24609,2.97949,1.5509,1.5509,0,0,0,.25-.0205,37.99334,37.99334,0,0,0,6.61957-1.61951c.98053.34607,1.87579.6441,2.72046.89862L41.38177,56.497C35.68579,54.91587,31.72559,51.847,31.72559,48.41105Zm7.25616,10.486L36.50085,61.378c-2.943-1.64239-4.77526-3.79461-4.77526-6.12219v-.52911A19.48346,19.48346,0,0,0,38.98175,58.89707Zm3.32239.9198A36.36985,36.36985,0,0,0,50,60.62589c7.8703,0,14.59521-2.34326,18.27441-5.89923v.52911c0,4.99512-8.36914,9.21485-18.27441,9.21485a31.186,31.186,0,0,1-10.58148-1.76813ZM50,57.62589a33.90841,33.90841,0,0,1-5.11572-.38916l6.18023-6.18024a49.0791,49.0791,0,0,0,6.09467.73737c.03613.00293.07227.0039.1084.0039a1.49994,1.49994,0,0,0,.10449-2.99609c-1.40936-.1-2.59485-.21539-3.692-.36072l4.70118-4.70117c1.85382.65466,3.53222,1.09723,4.98986,1.47888,4.03711,1.05762,4.90332,1.44922,4.90332,3.19239C68.27441,53.40616,59.90527,57.62589,50,57.62589Zm0,17.416a24.935,24.935,0,0,1-16.60339-6.3175l3.70648-3.70648A32.83778,32.83778,0,0,0,50,67.47062c11.92969,0,21.27441-5.36524,21.27441-12.21485V48.41105c0-4.22364-3.31054-5.08985-7.14355-6.09375-1.0177-.26661-2.15045-.56464-3.37683-.95032l7.97046-7.97046A25.02406,25.02406,0,0,1,50,75.0419Z"/></svg>